<svg height="512" viewBox="0 0 512 512" width="512" xmlns="http://www.w3.org/2000/svg"><g id="Filled_outline" data-name="Filled outline"><path d="m376 352 56 136h16a40 40 0 0 0 40-40 184.673 184.673 0 0 0 -16.552-76.415l-23.448-51.585z" fill="#fdb683"/><path d="m64 320-23.448 51.585a184.673 184.673 0 0 0 -16.552 76.415 40 40 0 0 0 40 40h16l56-136z" fill="#fdb683"/><path d="m448 320-20.137-44.3a74.546 74.546 0 0 0 -67.863-43.7h-208a74.546 74.546 0 0 0 -67.863 43.7l-20.137 44.3 72 32 16-40v176h208v-176l16 40z" fill="#de5540"/><path d="m216 56h80a48 48 0 0 1 48 48v88a88 88 0 0 1 -88 88 88 88 0 0 1 -88-88v-88a48 48 0 0 1 48-48z" fill="#fdc8a2"/><path d="m168 152 6.782-2.713a94.1 94.1 0 0 0 49.218-45.287v-56h-8a48 48 0 0 0 -48 48z" fill="#784533"/><path d="m344 96v56a100.559 100.559 0 0 1 -56-56v-48h8a48 48 0 0 1 48 48z" fill="#784533"/><path d="m288 48v48a190.267 190.267 0 0 1 -50.48 23.83 190.5 190.5 0 0 1 -55.21 8.17h-30.31v-24a80.452 80.452 0 0 1 .79-11.26 79.658 79.658 0 0 1 12.25-32.52 79.913 79.913 0 0 1 66.96-36.22h22.7a35.1 35.1 0 0 1 33.3 24z" fill="#844e3a"/><path d="m160 152h8a0 0 0 0 1 0 0v48a0 0 0 0 1 0 0h-8a24 24 0 0 1 -24-24 24 24 0 0 1 24-24z" fill="#fdb683"/><path d="m368 152h8a0 0 0 0 1 0 0v48a0 0 0 0 1 0 0h-8a24 24 0 0 1 -24-24 24 24 0 0 1 24-24z" fill="#fdb683" transform="matrix(-1 0 0 -1 720 352)"/><path d="m224 304h-112v32h144a32 32 0 0 0 -32-32z" fill="#f1ddc1"/><path d="m288 304h112v32h-144a32 32 0 0 1 32-32z" fill="#f1ddc1"/><path d="m112 336h128v152h-128z" fill="#844e3a"/><path d="m272 336h128v152h-128z" fill="#844e3a"/><path d="m240 336h32v152h-32z" fill="#915c49"/><path d="m136 408h-24v-9.667a14.209 14.209 0 0 0 -12.332-14.24 13.949 13.949 0 0 0 -14.847 9.444l-4.821 14.463h-16a40 40 0 0 0 -40 40 40 40 0 0 0 40 40h72a16 16 0 0 0 16-16v-48a16 16 0 0 0 -16-16z" fill="#fdc8a2"/><path d="m432 408-4.692-14.077a14.288 14.288 0 0 0 -12.572-9.9 13.947 13.947 0 0 0 -14.736 13.924v10.053h-24a16 16 0 0 0 -16 16v48a16 16 0 0 0 16 16h72a40 40 0 0 0 40-40 40 40 0 0 0 -40-40z" fill="#fdc8a2"/><path d="m485.353 382.841-.977-2.151-14.566 6.62.976 2.149a102.741 102.741 0 0 1 9.214 42.541 47.994 47.994 0 0 1 -48 48h-56a8.009 8.009 0 0 1 -8-8v-48a8.009 8.009 0 0 1 8-8h24a8 8 0 0 0 8-8v-10.053a5.947 5.947 0 0 1 11.589-1.88l4.822 14.463a8 8 0 0 0 7.589 5.47h32v-16h-26.234l-3-8.993a21.927 21.927 0 0 0 -26.766-14.181v-30.3l36-16 18.537 40.779 14.565-6.622-41.958-92.3a82.707 82.707 0 0 0 -75.144-48.383h-13.491a95.133 95.133 0 0 0 4.15-16h1.341a32 32 0 0 0 0-64v-48a56.063 56.063 0 0 0 -56-56h-2.667a43.032 43.032 0 0 0 -38.633-24h-22.7a88.1 88.1 0 0 0 -88 88v24a8 8 0 0 0 8 8h8v8a32 32 0 0 0 0 64h1.341a95.133 95.133 0 0 0 4.15 16h-13.491a82.356 82.356 0 0 0 -44.692 13.145c-2.2 1.417-4.358 2.957-6.408 4.573l9.907 12.564c1.651-1.3 3.389-2.543 5.165-3.686a66.4 66.4 0 0 1 36.028-10.596h20.887a95.956 95.956 0 0 0 166.226 0h20.887a66.672 66.672 0 0 1 60.577 39.011l16.8 36.955-29.377 13.055v-25.021a8 8 0 0 0 -8-8h-112a39.964 39.964 0 0 0 -32 16.028 39.964 39.964 0 0 0 -32-16.028h-112a8 8 0 0 0 -8 8v25.021l-29.378-13.055 16.8-36.958a66.4 66.4 0 0 1 10.585-16.389l-12.017-10.56a82.37 82.37 0 0 0 -13.133 20.331l-50.211 110.452a118.092 118.092 0 0 0 -10.646 49.158 63.994 63.994 0 0 0 64 64h352a63.993 63.993 0 0 0 64-64 118.7 118.7 0 0 0 -10.647-49.159zm-133.353-222.841a16 16 0 0 1 0 32zm-192 32a16 16 0 0 1 0-32zm0-72v-11.679c3.006-.23 5.986-.512 8.908-.853 7.391-.845 14.861-2.072 22.2-3.646 45.973-9.843 74.116-30.176 75.291-31.037l-9.452-12.91c-.26.191-26.525 19.166-69.192 28.3-6.833 1.466-13.784 2.607-20.68 3.395-2 .235-4.039.433-6.086.611a71.349 71.349 0 0 1 4.2-14.969c38.559-5.461 73.335-20.732 73.695-20.892l-3.177-7.168-2.557-7.747a8 8 0 0 0 -.75.288 305.775 305.775 0 0 1 -56.695 17.5 71.885 71.885 0 0 1 56.295-27.193h22.7a27.061 27.061 0 0 1 25.3 17.384v42.276a181.927 181.927 0 0 1 -97.689 28.34zm23.689 15.987a86.02 86.02 0 0 1 -7.689 4.065v-4.052h6.311c.46 0 .919-.01 1.378-.013zm152.311 56.013a80 80 0 0 1 -160 0v-34.582l1.752-.7a102.769 102.769 0 0 0 34.658-23 197.663 197.663 0 0 0 72.107-26.051 109.158 109.158 0 0 0 51.483 49.598zm0-94.749a174.645 174.645 0 0 0 -27.562-23.907l-8.881 13.308c.22.148 21.589 14.583 36.443 35.821v16.839a93.031 93.031 0 0 1 -40-44.886v-38.426a40.045 40.045 0 0 1 40 40zm-192 374.749a8.009 8.009 0 0 1 -8 8h-56a48 48 0 0 1 -48-48 102.187 102.187 0 0 1 9.213-42.539l26.787-58.929 36 16v30.3a21.927 21.927 0 0 0 -26.768 14.181l-3 8.993h-26.232v16h32a8 8 0 0 0 7.589-5.47l4.822-14.463a5.947 5.947 0 0 1 11.589 1.874v10.053a8 8 0 0 0 8 8h24a8.009 8.009 0 0 1 8 8zm88 8h-73.376a23.889 23.889 0 0 0 1.376-8v-48a24.028 24.028 0 0 0 -24-24h-16v-56h112zm-112-152v-16h104a24.042 24.042 0 0 1 22.629 16zm144 152h-16v-136h16zm24-168h104v16h-126.629a24.042 24.042 0 0 1 22.629-16zm65.376 168h-73.376v-136h112v56h-16a24.028 24.028 0 0 0 -24 24v48a23.889 23.889 0 0 0 1.376 8zm-137.376-288a16 16 0 1 1 16-16 16.019 16.019 0 0 1 -16 16zm80-32a16 16 0 1 1 -16 16 16.019 16.019 0 0 1 16-16zm-20.733 49.551 9.466 12.9a47.763 47.763 0 0 1 -57.466 0l9.466-12.9a32.031 32.031 0 0 0 38.534 0zm92.733 174.449h-64v-16h64zm-56 16h32v16h-32z"/></g></svg>